# xmcd
#
# Track frame offsets: 
#        150
#        14667
#        31813
#        48761
#        68952
#        85750
#        105167
#        120942
#        138490
#        153983
#        170732
#        202482
#        219419
#        234371
#
# Disc length: 3400 seconds
#
# Revision: 0
# Processed by: cddbd v1.5.2PL0 Copyright (c) Steve Scherf et al.
# Submitted via: ExactAudioCopy v1.3
#
DISCID=b70d460e
DTITLE=Jimmy Buffett - Take The Weather With You
DYEAR=2006
DGENRE=Country/rock
TTITLE0=Bama Breeze
TTITLE1=Party at the End of the World
TTITLE2=Weather With You
TTITLE3=Everybody's on the Phone
TTITLE4=Whoop De Doo
TTITLE5=Nothin' But A Breeze
TTITLE6=Cinco De Mayo In Memphis
TTITLE7=Reggabilly Hill
TTITLE8=Elvis Presley Blues
TTITLE9=Hula Girl At Heart
TTITLE10=Wheel Inside The Wheel
TTITLE11=Silver Wings
TTITLE12=Breath In Breath Out Move On
TTITLE13=Duke's On Sunday
EXTD=
EXTT0=
EXTT1=
EXTT2=
EXTT3=
EXTT4=
EXTT5=
EXTT6=
EXTT7=
EXTT8=
EXTT9=
EXTT10=
EXTT11=
EXTT12=
EXTT13=
PLAYORDER=
